<mxfile host="app.diagrams.net" modified="2020-03-26T20:10:51.459Z" agent="Mozilla/5.0 (Windows NT 6.1; Win64; x64) AppleWebKit/537.36 (KHTML, like Gecko) Chrome/59.0.3071.109 Safari/537.36" etag="9BSejX42TRe8jwcWCqD_" version="12.9.3" type="github">
  <diagram id="prtHgNgQTEPvFCAcTncT" name="Page-1">
    <mxGraphModel dx="1422" dy="1968" grid="1" gridSize="10" guides="1" tooltips="1" connect="1" arrows="1" fold="1" page="1" pageScale="1" pageWidth="827" pageHeight="1169" math="0" shadow="0">
      <root>
        <mxCell id="0" />
        <mxCell id="1" parent="0" />
        <mxCell id="TH7mZCXjukXXqmSF67bs-6" style="edgeStyle=orthogonalEdgeStyle;rounded=0;orthogonalLoop=1;jettySize=auto;html=1;exitX=0;exitY=1;exitDx=0;exitDy=0;entryX=0.5;entryY=0;entryDx=0;entryDy=0;" parent="1" source="TH7mZCXjukXXqmSF67bs-1" target="TH7mZCXjukXXqmSF67bs-4" edge="1">
          <mxGeometry relative="1" as="geometry">
            <Array as="points">
              <mxPoint x="310" y="10" />
              <mxPoint x="310" y="80" />
              <mxPoint x="240" y="80" />
            </Array>
          </mxGeometry>
        </mxCell>
        <mxCell id="TH7mZCXjukXXqmSF67bs-7" style="edgeStyle=orthogonalEdgeStyle;rounded=0;orthogonalLoop=1;jettySize=auto;html=1;exitX=1;exitY=1;exitDx=0;exitDy=0;entryX=0;entryY=0;entryDx=0;entryDy=0;" parent="1" source="TH7mZCXjukXXqmSF67bs-1" target="TH7mZCXjukXXqmSF67bs-3" edge="1">
          <mxGeometry relative="1" as="geometry" />
        </mxCell>
        <mxCell id="TH7mZCXjukXXqmSF67bs-8" style="edgeStyle=orthogonalEdgeStyle;rounded=0;orthogonalLoop=1;jettySize=auto;html=1;exitX=0.5;exitY=1;exitDx=0;exitDy=0;" parent="1" source="TH7mZCXjukXXqmSF67bs-1" target="TH7mZCXjukXXqmSF67bs-2" edge="1">
          <mxGeometry relative="1" as="geometry" />
        </mxCell>
        <mxCell id="TH7mZCXjukXXqmSF67bs-1" value="ADC" style="rounded=1;whiteSpace=wrap;html=1;" parent="1" vertex="1">
          <mxGeometry x="380" y="-50" width="120" height="60" as="geometry" />
        </mxCell>
        <mxCell id="TH7mZCXjukXXqmSF67bs-2" value="Code" style="rounded=1;whiteSpace=wrap;html=1;" parent="1" vertex="1">
          <mxGeometry x="380" y="300" width="120" height="60" as="geometry" />
        </mxCell>
        <mxCell id="TH7mZCXjukXXqmSF67bs-3" value="Screen" style="rounded=1;whiteSpace=wrap;html=1;" parent="1" vertex="1">
          <mxGeometry x="570" y="230" width="120" height="60" as="geometry" />
        </mxCell>
        <mxCell id="TH7mZCXjukXXqmSF67bs-4" value="Hardwire" style="rounded=1;whiteSpace=wrap;html=1;" parent="1" vertex="1">
          <mxGeometry x="180" y="240" width="120" height="60" as="geometry" />
        </mxCell>
        <mxCell id="mAqYQaUN89qgyE593kw7-5" style="edgeStyle=orthogonalEdgeStyle;rounded=0;orthogonalLoop=1;jettySize=auto;html=1;exitX=1;exitY=0.5;exitDx=0;exitDy=0;entryX=0.5;entryY=0;entryDx=0;entryDy=0;" edge="1" parent="1" source="mAqYQaUN89qgyE593kw7-1" target="mAqYQaUN89qgyE593kw7-3">
          <mxGeometry relative="1" as="geometry" />
        </mxCell>
        <mxCell id="mAqYQaUN89qgyE593kw7-6" style="edgeStyle=orthogonalEdgeStyle;rounded=0;orthogonalLoop=1;jettySize=auto;html=1;exitX=0.5;exitY=1;exitDx=0;exitDy=0;" edge="1" parent="1" source="mAqYQaUN89qgyE593kw7-1" target="mAqYQaUN89qgyE593kw7-2">
          <mxGeometry relative="1" as="geometry" />
        </mxCell>
        <mxCell id="mAqYQaUN89qgyE593kw7-7" style="edgeStyle=orthogonalEdgeStyle;rounded=0;orthogonalLoop=1;jettySize=auto;html=1;exitX=0;exitY=0.5;exitDx=0;exitDy=0;entryX=0.5;entryY=0;entryDx=0;entryDy=0;" edge="1" parent="1" source="mAqYQaUN89qgyE593kw7-1" target="mAqYQaUN89qgyE593kw7-4">
          <mxGeometry relative="1" as="geometry" />
        </mxCell>
        <mxCell id="mAqYQaUN89qgyE593kw7-1" value="Code" style="rounded=1;whiteSpace=wrap;html=1;" vertex="1" parent="1">
          <mxGeometry x="390" y="-610" width="120" height="60" as="geometry" />
        </mxCell>
        <mxCell id="mAqYQaUN89qgyE593kw7-9" style="edgeStyle=orthogonalEdgeStyle;rounded=0;orthogonalLoop=1;jettySize=auto;html=1;exitX=0.5;exitY=1;exitDx=0;exitDy=0;entryX=0.5;entryY=0;entryDx=0;entryDy=0;" edge="1" parent="1" source="mAqYQaUN89qgyE593kw7-2" target="mAqYQaUN89qgyE593kw7-8">
          <mxGeometry relative="1" as="geometry" />
        </mxCell>
        <mxCell id="mAqYQaUN89qgyE593kw7-2" value="Hardwire" style="rounded=1;whiteSpace=wrap;html=1;" vertex="1" parent="1">
          <mxGeometry x="390" y="-420" width="120" height="60" as="geometry" />
        </mxCell>
        <mxCell id="mAqYQaUN89qgyE593kw7-10" style="edgeStyle=orthogonalEdgeStyle;rounded=0;orthogonalLoop=1;jettySize=auto;html=1;exitX=0;exitY=1;exitDx=0;exitDy=0;entryX=1;entryY=0.25;entryDx=0;entryDy=0;" edge="1" parent="1" source="mAqYQaUN89qgyE593kw7-3" target="mAqYQaUN89qgyE593kw7-8">
          <mxGeometry relative="1" as="geometry" />
        </mxCell>
        <mxCell id="mAqYQaUN89qgyE593kw7-3" value="Transfer Data" style="rounded=1;whiteSpace=wrap;html=1;" vertex="1" parent="1">
          <mxGeometry x="630" y="-480" width="120" height="60" as="geometry" />
        </mxCell>
        <mxCell id="mAqYQaUN89qgyE593kw7-12" style="edgeStyle=orthogonalEdgeStyle;rounded=0;orthogonalLoop=1;jettySize=auto;html=1;exitX=1;exitY=0.5;exitDx=0;exitDy=0;entryX=0;entryY=0.5;entryDx=0;entryDy=0;" edge="1" parent="1" source="mAqYQaUN89qgyE593kw7-4" target="mAqYQaUN89qgyE593kw7-2">
          <mxGeometry relative="1" as="geometry" />
        </mxCell>
        <mxCell id="mAqYQaUN89qgyE593kw7-13" style="edgeStyle=orthogonalEdgeStyle;rounded=0;orthogonalLoop=1;jettySize=auto;html=1;exitX=1;exitY=0.75;exitDx=0;exitDy=0;entryX=0;entryY=0.25;entryDx=0;entryDy=0;" edge="1" parent="1" source="mAqYQaUN89qgyE593kw7-4" target="mAqYQaUN89qgyE593kw7-3">
          <mxGeometry relative="1" as="geometry" />
        </mxCell>
        <mxCell id="mAqYQaUN89qgyE593kw7-14" style="edgeStyle=orthogonalEdgeStyle;rounded=0;orthogonalLoop=1;jettySize=auto;html=1;exitX=0.75;exitY=1;exitDx=0;exitDy=0;entryX=0;entryY=0.25;entryDx=0;entryDy=0;" edge="1" parent="1" source="mAqYQaUN89qgyE593kw7-4" target="mAqYQaUN89qgyE593kw7-8">
          <mxGeometry relative="1" as="geometry" />
        </mxCell>
        <mxCell id="mAqYQaUN89qgyE593kw7-4" value="Leadingship" style="rounded=1;whiteSpace=wrap;html=1;" vertex="1" parent="1">
          <mxGeometry x="180" y="-480" width="120" height="60" as="geometry" />
        </mxCell>
        <mxCell id="mAqYQaUN89qgyE593kw7-8" value="Screen" style="rounded=1;whiteSpace=wrap;html=1;" vertex="1" parent="1">
          <mxGeometry x="390" y="-310" width="120" height="60" as="geometry" />
        </mxCell>
        <mxCell id="mAqYQaUN89qgyE593kw7-11" value="Using similar data" style="text;html=1;strokeColor=none;fillColor=none;align=center;verticalAlign=middle;whiteSpace=wrap;rounded=0;" vertex="1" parent="1">
          <mxGeometry x="530" y="-340" width="90" height="50" as="geometry" />
        </mxCell>
      </root>
    </mxGraphModel>
  </diagram>
</mxfile>
